<svg version="1.2" baseProfile="tiny-ps" xmlns="http://www.w3.org/2000/svg" viewBox="0 0 200 50" width="200" height="50">
	<title>d3-seeklogo</title>
	<defs>
		<linearGradient id="grd1" gradientUnits="userSpaceOnUse"  x1="-607.91" y1="-1246.942" x2="2002.019" y2="1466.179">
			<stop offset="0" stop-color="#f9a03c"  />
			<stop offset="100" stop-color="#f7974e"  />
		</linearGradient>
		<linearGradient id="grd2" gradientUnits="userSpaceOnUse"  x1="-1558.731" y1="-817.468" x2="-348.952" y2="374.236">
			<stop offset="0" stop-color="#f9a03c"  />
			<stop offset="100" stop-color="#f7974e"  />
		</linearGradient>
		<linearGradient id="grd3" gradientUnits="userSpaceOnUse"  x1="-1292.699" y1="-817.993" x2="-193.442" y2="375.25">
			<stop offset="0" stop-color="#f9a03c"  />
			<stop offset="100" stop-color="#f7974e"  />
		</linearGradient>
		<linearGradient id="grd4" gradientUnits="userSpaceOnUse"  x1="19199.2" y1="-219.547" x2="28782.235" y2="11100.52">
			<stop offset="0" stop-color="#f26d58"  />
			<stop offset="100" stop-color="#f9a03c"  />
		</linearGradient>
		<linearGradient id="grd5" gradientUnits="userSpaceOnUse"  x1="9917.463" y1="-617.587" x2="17674.152" y2="5411.454">
			<stop offset="0" stop-color="#b84e51"  />
			<stop offset="100" stop-color="#f68e48"  />
		</linearGradient>
		<linearGradient id="grd6" gradientUnits="userSpaceOnUse"  x1="11909.537" y1="445.112" x2="12224.365" y2="2632.969">
			<stop offset="0" stop-color="#f9a03c"  />
			<stop offset="100" stop-color="#f7974e"  />
		</linearGradient>
	</defs>
	<style>
		tspan { white-space:pre }
		.shp0 { display: none;fill: url(#grd1) } 
		.shp1 { display: none;fill: url(#grd2) } 
		.shp2 { display: none;fill: url(#grd3) } 
		.shp3 { display: none;fill: url(#grd4) } 
		.shp4 { display: none;fill: url(#grd5) } 
		.shp5 { display: none;fill: url(#grd6) } 
	</style>
	<g id="Layer">
		<path id="Layer" class="shp0" d="M199.63 36.14C199.71 35.91 199.78 35.67 199.83 35.44C199.89 35.17 136.89 19.42 136.89 19.42L135.38 19.42C135.38 19.42 199.24 37.16 199.63 36.14L199.63 36.14L199.63 36.14Z" />
		<path id="Layer" class="shp1" d="M65.21 30.67C65.13 30.72 65.05 30.77 64.96 30.82C64.87 30.87 64.78 30.92 64.69 30.97C62.68 32.07 92.8 39.83 95.23 38.89C95.34 38.84 95.45 38.8 95.56 38.76C95.68 38.71 95.8 38.66 95.92 38.61C97.86 37.84 66.07 30.17 65.21 30.67L65.21 30.67L65.21 30.67Z" />
		<path id="Layer" class="shp2" d="M107.78 41.58C107.69 41.63 107.09 41.9 106.53 42.04C106.44 42.09 135.94 49.8 135.94 49.8L138.6 49.8C138.6 49.8 110.9 41.91 107.78 41.58L107.78 41.58L107.78 41.58Z" />
		<path id="Layer" fill-rule="evenodd" class="shp3" d="M199.87 35.3C199.83 35.53 199.76 35.75 199.69 35.97L135.93 19.42L125.62 19.42C126.93 21.21 127.64 23.05 127.64 24.94C127.64 26.8 126.94 28.61 125.68 30.37L142.28 30.37C151.15 30.37 158.37 32.27 158.37 34.61C158.37 36.95 151.15 38.85 142.28 38.85L114.23 38.85C112.13 39.87 109.77 40.84 107.23 41.79L138.1 49.8L142.28 49.8C173.19 49.8 198.49 43.36 199.87 35.3ZM0 0L0 10.95L16.77 10.95C46.06 10.95 69.9 17.22 69.9 24.94C69.9 27.04 68.12 29.03 64.96 30.82L95.56 38.76C105.6 34.8 111.47 30.05 111.47 24.94C111.47 11.19 68.99 0 16.77 0L0 0Z" />
		<path id="Layer" class="shp4" d="M142.28 0L74.36 0C90.95 2.67 104.69 6.45 114.05 10.95L142.28 10.95C151.15 10.95 158.37 12.85 158.37 15.19C158.37 17.52 151.15 19.42 142.28 19.42L135.93 19.42L199.69 35.97C199.84 35.52 199.94 35.07 199.94 34.61C199.94 30.92 194.91 27.53 186.56 24.9C194.91 22.26 199.94 18.88 199.94 15.19C199.94 6.81 174.07 0 142.28 0L142.28 0L142.28 0Z" />
		<path id="Layer" fill-rule="evenodd" class="shp5" d="M138.1 49.8L107.23 41.79C98.59 44.99 87.58 47.73 74.85 49.8L138.1 49.8ZM64.96 30.82C56.51 35.6 38.09 38.93 16.77 38.93L0 38.93L0 49.88L16.77 49.88C49.59 49.88 78.56 45.46 95.56 38.76L64.96 30.82Z" />
		<path id="MR Blogs " fill="#000000" aria-label="MR Blogs"  d="M55.91 10.48Q55.84 10.38 54.98 10.38L53.06 10.43Q52.73 10.43 52.58 10.72Q52.46 11.01 52.46 11.06L50.92 16.24Q48.64 24.45 48.49 24.45Q48.38 24.45 47.44 20.85Q46.5 17.2 46.13 15.81L44.96 11.3Q44.7 10.43 43.8 10.43L43.05 10.48Q42.67 10.53 42.26 10.53Q41.85 10.53 41.55 10.58Q41.06 10.58 40.91 11.49Q40.58 14.18 37.8 31.22Q37.39 33.86 37.09 35.68Q36.79 37.5 36.67 38.32L36.67 38.56Q36.67 38.94 36.79 39.14Q36.94 39.33 37.05 39.38Q37.2 39.42 37.24 39.42L40.13 40Q40.2 40 40.39 40Q40.61 39.95 40.84 39.71Q41.06 39.47 41.14 38.99Q41.48 36.3 42.41 29.25Q43.35 22.14 43.46 22.14Q43.58 22.14 44.59 25.94Q45.64 29.73 46.24 32.03Q46.35 32.61 46.61 32.8Q46.91 32.99 47.29 32.99L49.13 33.04Q49.31 33.04 49.54 32.85Q49.76 32.61 49.88 32.42Q50.06 32.03 51.3 28.19Q53.36 22.05 53.48 22.05Q53.59 22.05 55.13 32.27L56.21 39.42Q56.29 39.86 56.63 40.24Q56.96 40.58 57.23 40.48Q59.55 39.57 60.11 39.28Q60.23 39.23 60.3 38.94Q60.41 38.66 60.38 38.46Q59.55 33.09 57.79 21.86Q56.02 10.62 55.91 10.48ZM71.59 26.66Q71.7 26.56 71.92 26.46Q72.19 26.37 72.3 26.32Q73.16 25.74 73.95 25.02Q74.78 24.3 75.6 22.53Q76.42 20.75 76.42 18.02Q76.42 15.62 75.49 13.79Q74.55 11.97 73.05 10.96Q71.59 9.95 69.97 9.95Q69.15 9.86 67.46 9.86L64.72 9.9Q64.09 9.9 63.56 10.38Q63.04 10.86 63.04 11.78L63 38.75Q63 39.71 63.41 39.9Q63.64 40 64.42 40Q65.59 40 65.89 39.9Q66.38 39.81 66.53 39.62Q66.67 39.42 66.67 38.61Q66.67 28.24 66.71 27.28Q67.35 27.23 67.61 27.47Q67.88 27.71 68.1 28.29Q68.85 30.35 70.5 34.72Q72.19 39.09 72.41 39.57Q72.64 40.29 73.05 40.29Q73.28 40.29 73.5 40.14Q74.29 39.86 75.68 38.99Q76.16 38.66 76.16 38.32Q76.16 38.08 75.97 37.6L74.63 34.24Q72.08 28.1 71.59 26.66ZM66.75 20.99Q66.75 17.2 66.71 15.47Q66.71 14.66 67.31 14.66Q67.84 14.61 68.85 14.61Q70.16 14.7 71.29 15.33Q72.41 15.9 72.41 18.02Q72.41 19.46 71.74 20.42Q71.06 21.38 70.24 21.81Q69.41 22.24 69.11 22.24Q68.81 22.29 68.44 22.29Q68.25 22.29 68.03 22.29Q67.8 22.24 67.35 22.24Q67.01 22.24 66.86 22.05Q66.75 21.81 66.75 21.38L66.75 20.99ZM97.58 21.52Q98.21 21.38 98.96 20.66Q99.75 19.94 100.28 18.74Q100.84 17.49 100.84 15.86Q100.84 13.02 99.38 11.39Q97.91 9.71 96.04 9.09Q94.2 8.42 92.78 8.37L88.84 8.37Q88.09 8.37 88.09 9.33L88.09 38.8Q88.09 39.71 88.46 40.1Q88.84 40.48 89.74 40.48L96 40.48Q97.28 40.48 98.78 39.47Q100.28 38.46 101.29 36.45Q102.34 34.43 102.34 31.55L102.34 29.25Q102.34 27.76 101.7 26.18Q101.06 24.54 99.94 23.3Q98.85 22.05 97.58 21.52ZM92.14 19.07L92.14 17.97Q92.21 14.32 92.18 13.12Q92.18 12.88 92.25 12.78Q92.33 12.64 92.4 12.64Q92.47 12.59 92.51 12.59Q92.51 12.5 93.79 12.74Q95.1 12.93 96.15 13.7Q97.2 14.46 97.2 16Q97.2 17.34 96.15 18.16Q95.1 18.93 93.75 19.31Q92.44 19.65 92.44 19.55L92.4 19.55Q92.14 19.55 92.14 19.07ZM92.25 35.63Q92.14 35.54 92.14 30.74Q92.14 25.17 92.25 25.02Q92.4 24.93 92.78 24.93Q93.26 24.93 93.71 24.98Q94.16 25.02 94.46 25.02Q96.08 25.02 97.16 26.37Q98.25 27.66 98.25 29.54L98.25 30.93Q98.25 32.42 97.61 33.47Q97.01 34.53 96.15 35.1Q95.29 35.63 94.57 35.63L92.63 35.68Q92.29 35.68 92.25 35.63ZM110.47 35.06Q110.4 35.06 110.29 34.91Q110.17 34.72 110.17 34.53L110.14 24.69Q110.14 12.98 110.21 10.58Q110.21 10.19 110.1 10.05Q109.99 9.9 109.73 9.95Q109.43 10 108.79 10L106.84 9.95Q106.42 9.95 106.28 10.14Q106.16 10.34 106.16 10.82Q106.16 16.34 106.13 25.12Q106.13 33.9 106.09 38.61Q106.09 39.14 106.31 39.57Q106.58 40 106.84 40Q107.18 40.05 110.85 40.05Q116.7 40.05 117.08 39.9Q117.22 39.86 117.38 39.66Q117.53 39.42 117.53 39.23Q117.6 38.22 117.6 36.02Q117.6 35.49 117.41 35.3Q117.22 35.06 116.78 35.06L110.47 35.06ZM132.82 32.61L132.79 17.92Q132.79 13.94 131.36 11.44Q129.97 8.9 127.09 8.9Q123.86 8.9 122.02 11.06Q120.19 13.17 120.19 17.78L120.19 25.07Q120.19 32.94 120.3 33.81Q120.56 36.26 121.95 38.37Q123.38 40.48 126.79 40.48Q128.7 40.48 130.05 39.18Q131.44 37.89 132.11 36.06Q132.82 34.19 132.82 32.61ZM123.98 31.46Q123.94 31.07 123.9 25.98Q123.86 20.85 123.86 17.78Q123.86 15.86 124.5 14.8Q125.17 13.7 126.6 13.7Q128.96 13.7 128.96 17.73L128.96 31.5Q128.96 33.33 128.4 34.34Q127.88 35.3 126.49 35.3Q124.24 35.3 123.98 31.46ZM144.75 28.62Q144.75 28.77 144.79 30.59Q144.82 32.42 144.23 34.05Q143.63 35.63 142.39 35.63Q141.22 35.63 140.55 34.58Q139.91 33.52 139.69 32.32Q139.5 31.07 139.5 30.35L139.5 24.26Q139.5 18.3 139.54 17.54Q139.61 16.38 140.1 15.28Q140.63 14.13 141.53 14.13Q142.46 14.13 143.03 14.66Q143.59 15.18 144 15.9Q144.41 16.62 144.56 16.53L145.5 15.71Q146.55 14.75 147 14.46Q147.34 14.22 147.34 13.94Q147.34 13.65 147.19 13.46Q147.04 13.22 146.36 11.97Q145.73 10.72 144.49 9.81Q143.29 8.85 141.68 8.85Q140.78 8.85 139.35 9.52Q137.93 10.14 136.73 12.06Q135.53 13.94 135.53 17.3L135.56 30.54Q135.56 32.18 135.98 34.53Q136.43 36.83 137.89 38.9Q139.39 40.91 142.2 40.91Q145.43 40.91 146.96 38.03Q148.5 35.15 148.5 30.02Q148.54 29.01 148.54 27.9Q148.54 27.52 148.5 26.9Q148.5 26.27 148.54 24.83Q148.54 24.4 148.31 24.16Q148.13 23.92 147.9 23.87Q147.68 23.82 147.6 23.82Q146.93 23.82 145.28 23.78Q143.63 23.73 142.43 23.78Q141.71 23.87 141.71 24.69L141.71 25.74Q141.71 26.13 141.71 26.7Q141.75 27.28 141.71 28L141.71 28.14Q141.71 28.48 141.82 28.58Q141.94 28.67 142.24 28.67Q143.14 28.62 144.75 28.62ZM155.25 27.57Q155.06 27.33 153.3 27.33L151.8 27.33Q151.5 27.33 151.39 27.42Q151.31 27.52 151.31 27.9L151.31 30.83Q151.31 32.75 151.35 33.76Q151.39 35.15 152.1 36.69Q152.81 38.22 154.16 39.28Q155.55 40.29 157.43 40.29Q160.16 40.29 161.63 38.32Q163.09 36.35 163.54 34.05Q164.03 31.74 164.03 30.11Q164.03 27.66 163.05 25.74Q162.11 23.82 161.18 22.86Q160.28 21.9 159.08 20.9Q158.89 20.75 158.66 20.66Q158.48 20.51 158.32 20.42Q156.97 19.65 156.11 18.83Q155.29 18.02 155.29 16.82Q155.29 15.23 156.04 14.51Q156.79 13.79 157.84 13.79Q158.66 13.79 159.38 14.61Q160.09 15.42 160.39 16.48Q160.39 16.58 160.61 16.62Q160.84 16.67 160.95 16.58Q161.74 16.05 163.24 14.9Q163.65 14.51 163.65 14.32Q163.65 14.13 163.43 13.7Q163.39 13.65 162.94 12.5Q162.53 11.34 161.1 10.19Q159.68 8.99 157.84 8.99Q155.81 8.99 154.31 10.1Q152.81 11.2 152.03 12.88Q151.24 14.56 151.24 16.24Q151.24 18.54 151.95 20.18Q152.7 21.76 153.71 22.72Q154.72 23.68 156.34 24.78Q158.1 26.03 158.93 27.04Q159.79 28 159.79 29.54Q159.79 31.94 159.38 33.28Q159 34.62 157.76 34.62Q156.64 34.62 156.07 33.47Q155.55 32.27 155.44 31.22Q155.4 30.64 155.4 29.3Q155.4 27.71 155.25 27.57Z" />
	</g>
</svg>